<svg width="20" height="20" viewBox="0 0 20 20" fill="none" xmlns="http://www.w3.org/2000/svg">
<path d="M11.8337 2.396C10.8115 2.396 9.83115 2.80206 9.10835 3.52486C8.38556 4.24765 7.97949 5.22797 7.97949 6.25016V8.396H5.91699C5.81366 8.396 5.72949 8.47933 5.72949 8.5835V11.4168C5.72949 11.5202 5.81283 11.6043 5.91699 11.6043H7.97949V17.4168C7.97949 17.5202 8.06283 17.6043 8.16699 17.6043H11.0003C11.1037 17.6043 11.1878 17.521 11.1878 17.4168V11.6043H13.2687C13.3545 11.6043 13.4295 11.546 13.4503 11.4627L14.1587 8.62933C14.1656 8.60168 14.1662 8.57281 14.1603 8.54491C14.1545 8.517 14.1423 8.49081 14.1248 8.46831C14.1073 8.44581 14.0849 8.4276 14.0592 8.41507C14.0336 8.40254 14.0055 8.39602 13.977 8.396H11.1878V6.25016C11.1878 6.16535 11.2045 6.08137 11.237 6.00301C11.2694 5.92466 11.317 5.85346 11.377 5.79349C11.437 5.73352 11.5082 5.68595 11.5865 5.65349C11.6649 5.62103 11.7488 5.60433 11.8337 5.60433H14.0003C14.1037 5.60433 14.1878 5.521 14.1878 5.41683V2.5835C14.1878 2.48016 14.1045 2.396 14.0003 2.396H11.8337Z" fill="#40140F"/>
</svg>
