<svg width="20" height="20" viewBox="0 0 20 20" fill="none" xmlns="http://www.w3.org/2000/svg">
<path fill-rule="evenodd" clip-rule="evenodd" d="M10.0003 1.6665C7.73699 1.6665 7.45366 1.6765 6.56449 1.7165C5.67783 1.75734 5.07199 1.89817 4.54199 2.104C3.98573 2.31304 3.48179 2.64095 3.06533 3.06484C2.64146 3.48132 2.31355 3.98526 2.10449 4.5415C1.89866 5.0715 1.75783 5.67734 1.71699 6.564C1.67616 7.45317 1.66699 7.7365 1.66699 9.99984C1.66699 12.2632 1.67616 12.5465 1.71699 13.4357C1.75783 14.3223 1.89866 14.9282 2.10449 15.4582C2.31358 16.0144 2.64148 16.5183 3.06533 16.9348C3.48182 17.3587 3.98576 17.6866 4.54199 17.8957C5.07199 18.1015 5.67783 18.2423 6.56449 18.2832C7.45366 18.3232 7.73699 18.3332 10.0003 18.3332C12.2637 18.3332 12.547 18.3232 13.4362 18.2832C14.3228 18.2423 14.9287 18.1015 15.4587 17.8957C16.0149 17.6866 16.5188 17.3587 16.9353 16.9348C17.3592 16.5184 17.6871 16.0144 17.8962 15.4582C18.102 14.9282 18.2428 14.3223 18.2837 13.4357C18.3237 12.5465 18.3337 12.2632 18.3337 9.99984C18.3337 7.7365 18.3237 7.45317 18.2837 6.564C18.2428 5.67734 18.102 5.0715 17.8962 4.5415C17.6871 3.98526 17.3592 3.48132 16.9353 3.06484C16.5189 2.64095 16.0149 2.31304 15.4587 2.104C14.9287 1.89817 14.3228 1.75734 13.4362 1.7165C12.547 1.6765 12.2637 1.6665 10.0003 1.6665ZM10.0003 3.16817C12.2253 3.16817 12.4887 3.1765 13.367 3.2165C14.1803 3.254 14.6212 3.389 14.9153 3.50317C15.3037 3.65484 15.582 3.83567 15.8737 4.1265C16.1653 4.41817 16.3453 4.6965 16.497 5.08484C16.6103 5.379 16.747 5.81984 16.7837 6.63234C16.8237 7.5115 16.832 7.774 16.832 9.99984C16.832 12.2248 16.8237 12.4882 16.7837 13.3665C16.7462 14.1798 16.6103 14.6207 16.497 14.9148C16.3634 15.2768 16.1504 15.6043 15.8737 15.8732C15.582 16.1648 15.3037 16.3448 14.9153 16.4965C14.6212 16.6098 14.1803 16.7465 13.3678 16.7832C12.4895 16.8232 12.2262 16.8315 10.0003 16.8315C7.77533 16.8315 7.51116 16.8232 6.63366 16.7832C5.82033 16.7457 5.37949 16.6098 5.08533 16.4965C4.72331 16.363 4.39584 16.15 4.12699 15.8732C3.85021 15.6043 3.63721 15.2769 3.50366 14.9148C3.38949 14.6207 3.25366 14.1798 3.21699 13.3673C3.17699 12.4882 3.16866 12.2257 3.16866 9.99984C3.16866 7.77484 3.17699 7.5115 3.21699 6.63317C3.25449 5.81984 3.38949 5.379 3.50366 5.08484C3.65533 4.6965 3.83616 4.41817 4.12699 4.1265C4.41866 3.83484 4.69699 3.65484 5.08533 3.50317C5.37949 3.389 5.82033 3.25317 6.63283 3.2165C7.51199 3.1765 7.77449 3.16817 10.0003 3.16817ZM10.0003 12.7773C9.26369 12.7773 8.55722 12.4847 8.03634 11.9638C7.51545 11.4429 7.22283 10.7365 7.22283 9.99984C7.22283 9.2632 7.51545 8.55673 8.03634 8.03585C8.55722 7.51497 9.26369 7.22234 10.0003 7.22234C10.737 7.22234 11.4434 7.51497 11.9643 8.03585C12.4852 8.55673 12.7778 9.2632 12.7778 9.99984C12.7778 10.7365 12.4852 11.4429 11.9643 11.9638C11.4434 12.4847 10.737 12.7773 10.0003 12.7773ZM10.0003 5.72067C9.43838 5.72067 8.88193 5.83135 8.36276 6.0464C7.84359 6.26145 7.37185 6.57665 6.9745 6.97401C6.57714 7.37137 6.26194 7.8431 6.04689 8.36227C5.83184 8.88144 5.72116 9.43789 5.72116 9.99984C5.72116 10.5618 5.83184 11.1182 6.04689 11.6374C6.26194 12.1566 6.57714 12.6283 6.9745 13.0257C7.37185 13.423 7.84359 13.7382 8.36276 13.9533C8.88193 14.1683 9.43838 14.279 10.0003 14.279C11.1352 14.279 12.2237 13.8282 13.0262 13.0257C13.8287 12.2232 14.2795 11.1347 14.2795 9.99984C14.2795 8.86493 13.8287 7.77651 13.0262 6.97401C12.2237 6.17151 11.1352 5.72067 10.0003 5.72067ZM15.4487 5.5515C15.4487 5.68283 15.4228 5.81286 15.3725 5.93419C15.3223 6.05551 15.2486 6.16575 15.1558 6.25861C15.0629 6.35147 14.9527 6.42513 14.8313 6.47538C14.71 6.52564 14.58 6.5515 14.4487 6.5515C14.3173 6.5515 14.1873 6.52564 14.066 6.47538C13.9446 6.42513 13.8344 6.35147 13.7416 6.25861C13.6487 6.16575 13.575 6.05551 13.5248 5.93419C13.4745 5.81286 13.4487 5.68283 13.4487 5.5515C13.4487 5.28629 13.554 5.03193 13.7416 4.8444C13.9291 4.65686 14.1834 4.5515 14.4487 4.5515C14.7139 4.5515 14.9682 4.65686 15.1558 4.8444C15.3433 5.03193 15.4487 5.28629 15.4487 5.5515Z" fill="#40140F"/>
</svg>
