<svg width="20" height="20" viewBox="0 0 20 20" fill="none" xmlns="http://www.w3.org/2000/svg">
<path d="M17.2708 4.39584H13.3625V3.65417C13.3594 3.12902 13.1499 2.62615 12.7792 2.25417C12.5945 2.06886 12.375 1.92192 12.1333 1.8218C11.8916 1.72169 11.6325 1.67038 11.3708 1.67084H8.65418C8.39256 1.67038 8.13344 1.72169 7.89173 1.8218C7.65003 1.92192 7.43052 2.06886 7.24585 2.25417C6.87819 2.6275 6.67172 3.1302 6.67085 3.65417V4.39584H2.76251C2.59675 4.39584 2.43778 4.46169 2.32057 4.5789C2.20336 4.69611 2.13751 4.85508 2.13751 5.02084C2.13751 5.1866 2.20336 5.34557 2.32057 5.46278C2.43778 5.57999 2.59675 5.64584 2.76251 5.64584H3.94585V15.4458C3.94245 15.8256 4.01434 16.2024 4.15738 16.5542C4.30041 16.9061 4.51175 17.2261 4.77918 17.4958C5.32446 18.0301 6.05746 18.3293 6.82085 18.3292H13.1708C13.9342 18.3293 14.6672 18.0301 15.2125 17.4958C15.4799 17.2261 15.6913 16.9061 15.8343 16.5542C15.9774 16.2024 16.0492 15.8256 16.0458 15.4458V5.64584H17.2375C17.4033 5.64584 17.5622 5.57999 17.6795 5.46278C17.7967 5.34557 17.8625 5.1866 17.8625 5.02084C17.8625 4.85508 17.7967 4.69611 17.6795 4.5789C17.5622 4.46169 17.4033 4.39584 17.2375 4.39584H17.2708ZM7.93751 3.65417C7.93755 3.55799 7.95672 3.46277 7.99392 3.37407C8.03112 3.28536 8.0856 3.20495 8.15418 3.13751C8.29195 3.00126 8.4771 2.92361 8.67085 2.92084H11.3875C11.485 2.92023 11.5817 2.93908 11.6718 2.97629C11.762 3.01349 11.8438 3.0683 11.9125 3.13751C12.0488 3.27528 12.1264 3.46043 12.1292 3.65417V4.39584H7.96251L7.93751 3.65417ZM9.04585 14.1625C9.04585 14.3835 8.95805 14.5955 8.80177 14.7518C8.64549 14.908 8.43353 14.9958 8.21251 14.9958C7.9915 14.9958 7.77954 14.908 7.62326 14.7518C7.46698 14.5955 7.37918 14.3835 7.37918 14.1625V9.63751C7.37918 9.41649 7.46698 9.20453 7.62326 9.04825C7.77954 8.89197 7.9915 8.80417 8.21251 8.80417C8.43353 8.80417 8.64549 8.89197 8.80177 9.04825C8.95805 9.20453 9.04585 9.41649 9.04585 9.63751V14.1625ZM12.6792 14.1625C12.6792 14.3835 12.5914 14.5955 12.4351 14.7518C12.2788 14.908 12.0669 14.9958 11.8458 14.9958C11.6248 14.9958 11.4129 14.908 11.2566 14.7518C11.1003 14.5955 11.0125 14.3835 11.0125 14.1625V9.63751C11.0125 9.41649 11.1003 9.20453 11.2566 9.04825C11.4129 8.89197 11.6248 8.80417 11.8458 8.80417C12.0669 8.80417 12.2788 8.89197 12.4351 9.04825C12.5914 9.20453 12.6792 9.41649 12.6792 9.63751V14.1625Z" fill="black"/>
</svg>
