<svg width="20" height="20" viewBox="0 0 20 20" fill="none" xmlns="http://www.w3.org/2000/svg">
<path d="M19.1669 8.0919C19.2081 6.89911 18.9472 5.71525 18.4085 4.65023C18.043 4.21323 17.5358 3.91832 16.9752 3.8169C14.6565 3.6065 12.3281 3.52027 10.0002 3.55856C7.68072 3.51853 5.36078 3.60198 3.05019 3.80856C2.59337 3.89166 2.17062 4.10593 1.83352 4.42523C1.08352 5.1169 1.00019 6.30023 0.916852 7.30023C0.795945 9.0982 0.795945 10.9023 0.916852 12.7002C0.94096 13.2631 1.02476 13.8218 1.16685 14.3669C1.26733 14.7878 1.47062 15.1772 1.75852 15.5002C2.09791 15.8364 2.53051 16.0629 3.00019 16.1502C4.79678 16.372 6.60703 16.4639 8.41685 16.4252C11.3335 16.4669 13.8919 16.4252 16.9169 16.1919C17.3981 16.1099 17.8428 15.8832 18.1919 15.5419C18.4252 15.3085 18.5994 15.0228 18.7002 14.7086C18.9982 13.7941 19.1446 12.837 19.1335 11.8752C19.1669 11.4086 19.1669 8.5919 19.1669 8.0919ZM8.11685 12.3752V7.2169L13.0502 9.80856C11.6669 10.5752 9.84185 11.4419 8.11685 12.3752Z" fill="#40140F"/>
</svg>
